<mxfile host="app.diagrams.net" modified="2021-01-10T03:39:58.978Z" agent="5.0 (Macintosh; Intel Mac OS X 10_15_6) AppleWebKit/537.36 (KHTML, like Gecko) Chrome/86.0.4240.193 Safari/537.36" etag="rE2oVr9bYlvakjZ_L0y6" version="14.1.9" type="github">
  <diagram id="P87Ep9UWH-6a5RSEcOYv" name="Page-1">
    <mxGraphModel dx="946" dy="536" grid="1" gridSize="10" guides="1" tooltips="1" connect="1" arrows="1" fold="1" page="1" pageScale="1" pageWidth="827" pageHeight="1169" math="0" shadow="0">
      <root>
        <mxCell id="0" />
        <mxCell id="1" parent="0" />
        <mxCell id="gP7DY0Bb3ieOL5E0moL4-3" value="redis数据" style="rounded=1;whiteSpace=wrap;html=1;fillColor=#ffe6cc;strokeColor=#d79b00;" vertex="1" parent="1">
          <mxGeometry x="50" y="290" width="120" height="60" as="geometry" />
        </mxCell>
        <mxCell id="gP7DY0Bb3ieOL5E0moL4-4" value="aof缓冲区" style="rounded=1;whiteSpace=wrap;html=1;fillColor=#fff2cc;strokeColor=#d6b656;" vertex="1" parent="1">
          <mxGeometry x="220" y="290" width="120" height="60" as="geometry" />
        </mxCell>
        <mxCell id="gP7DY0Bb3ieOL5E0moL4-5" value="aof重写缓冲区" style="rounded=1;whiteSpace=wrap;html=1;fillColor=#d5e8d4;strokeColor=#82b366;" vertex="1" parent="1">
          <mxGeometry x="710" y="290" width="120" height="60" as="geometry" />
        </mxCell>
        <mxCell id="gP7DY0Bb3ieOL5E0moL4-6" value="redis数据" style="rounded=1;whiteSpace=wrap;html=1;fillColor=#ffe6cc;strokeColor=#d79b00;" vertex="1" parent="1">
          <mxGeometry x="410" y="290" width="120" height="60" as="geometry" />
        </mxCell>
        <mxCell id="gP7DY0Bb3ieOL5E0moL4-7" value="aof缓冲区" style="rounded=1;whiteSpace=wrap;html=1;fillColor=#fff2cc;strokeColor=#d6b656;" vertex="1" parent="1">
          <mxGeometry x="560" y="290" width="120" height="60" as="geometry" />
        </mxCell>
        <mxCell id="gP7DY0Bb3ieOL5E0moL4-10" style="rounded=0;orthogonalLoop=1;jettySize=auto;html=1;exitX=0.5;exitY=1;exitDx=0;exitDy=0;entryX=0.5;entryY=0;entryDx=0;entryDy=0;" edge="1" parent="1" source="gP7DY0Bb3ieOL5E0moL4-8" target="gP7DY0Bb3ieOL5E0moL4-3">
          <mxGeometry relative="1" as="geometry" />
        </mxCell>
        <mxCell id="gP7DY0Bb3ieOL5E0moL4-11" style="edgeStyle=none;rounded=0;orthogonalLoop=1;jettySize=auto;html=1;exitX=0.5;exitY=1;exitDx=0;exitDy=0;entryX=0.5;entryY=0;entryDx=0;entryDy=0;" edge="1" parent="1" source="gP7DY0Bb3ieOL5E0moL4-8" target="gP7DY0Bb3ieOL5E0moL4-4">
          <mxGeometry relative="1" as="geometry" />
        </mxCell>
        <mxCell id="gP7DY0Bb3ieOL5E0moL4-8" value="主线程" style="rounded=1;whiteSpace=wrap;html=1;fillColor=#f5f5f5;strokeColor=#666666;fontColor=#333333;" vertex="1" parent="1">
          <mxGeometry x="140" y="160" width="120" height="60" as="geometry" />
        </mxCell>
        <mxCell id="gP7DY0Bb3ieOL5E0moL4-12" style="edgeStyle=none;rounded=0;orthogonalLoop=1;jettySize=auto;html=1;exitX=0.5;exitY=1;exitDx=0;exitDy=0;entryX=0.5;entryY=0;entryDx=0;entryDy=0;" edge="1" parent="1" source="gP7DY0Bb3ieOL5E0moL4-9" target="gP7DY0Bb3ieOL5E0moL4-7">
          <mxGeometry relative="1" as="geometry" />
        </mxCell>
        <mxCell id="gP7DY0Bb3ieOL5E0moL4-13" style="edgeStyle=none;rounded=0;orthogonalLoop=1;jettySize=auto;html=1;exitX=0.5;exitY=1;exitDx=0;exitDy=0;entryX=0.5;entryY=0;entryDx=0;entryDy=0;" edge="1" parent="1" source="gP7DY0Bb3ieOL5E0moL4-9" target="gP7DY0Bb3ieOL5E0moL4-6">
          <mxGeometry relative="1" as="geometry" />
        </mxCell>
        <mxCell id="gP7DY0Bb3ieOL5E0moL4-14" style="edgeStyle=none;rounded=0;orthogonalLoop=1;jettySize=auto;html=1;exitX=0.5;exitY=1;exitDx=0;exitDy=0;entryX=0.5;entryY=0;entryDx=0;entryDy=0;" edge="1" parent="1" source="gP7DY0Bb3ieOL5E0moL4-9" target="gP7DY0Bb3ieOL5E0moL4-5">
          <mxGeometry relative="1" as="geometry" />
        </mxCell>
        <mxCell id="gP7DY0Bb3ieOL5E0moL4-9" value="主线程" style="rounded=1;whiteSpace=wrap;html=1;fillColor=#f5f5f5;strokeColor=#666666;fontColor=#333333;" vertex="1" parent="1">
          <mxGeometry x="560" y="160" width="120" height="60" as="geometry" />
        </mxCell>
        <mxCell id="gP7DY0Bb3ieOL5E0moL4-15" value="" style="endArrow=classic;html=1;" edge="1" parent="1">
          <mxGeometry width="50" height="50" relative="1" as="geometry">
            <mxPoint x="340" y="240" as="sourcePoint" />
            <mxPoint x="420" y="240" as="targetPoint" />
          </mxGeometry>
        </mxCell>
        <mxCell id="gP7DY0Bb3ieOL5E0moL4-16" value="aof重写" style="text;html=1;strokeColor=none;fillColor=none;align=center;verticalAlign=middle;whiteSpace=wrap;rounded=0;" vertex="1" parent="1">
          <mxGeometry x="350" y="200" width="70" height="20" as="geometry" />
        </mxCell>
        <mxCell id="gP7DY0Bb3ieOL5E0moL4-17" value="命令" style="text;html=1;strokeColor=none;fillColor=none;align=center;verticalAlign=middle;whiteSpace=wrap;rounded=0;" vertex="1" parent="1">
          <mxGeometry x="90" y="240" width="40" height="20" as="geometry" />
        </mxCell>
        <mxCell id="gP7DY0Bb3ieOL5E0moL4-18" value="日志" style="text;html=1;strokeColor=none;fillColor=none;align=center;verticalAlign=middle;whiteSpace=wrap;rounded=0;" vertex="1" parent="1">
          <mxGeometry x="260" y="240" width="40" height="20" as="geometry" />
        </mxCell>
        <mxCell id="gP7DY0Bb3ieOL5E0moL4-19" value="命令" style="text;html=1;strokeColor=none;fillColor=none;align=center;verticalAlign=middle;whiteSpace=wrap;rounded=0;" vertex="1" parent="1">
          <mxGeometry x="500" y="230" width="40" height="20" as="geometry" />
        </mxCell>
        <mxCell id="gP7DY0Bb3ieOL5E0moL4-20" value="日志" style="text;html=1;strokeColor=none;fillColor=none;align=center;verticalAlign=middle;whiteSpace=wrap;rounded=0;" vertex="1" parent="1">
          <mxGeometry x="570" y="250" width="40" height="20" as="geometry" />
        </mxCell>
        <mxCell id="gP7DY0Bb3ieOL5E0moL4-21" value="日志" style="text;html=1;strokeColor=none;fillColor=none;align=center;verticalAlign=middle;whiteSpace=wrap;rounded=0;" vertex="1" parent="1">
          <mxGeometry x="720" y="230" width="40" height="20" as="geometry" />
        </mxCell>
      </root>
    </mxGraphModel>
  </diagram>
</mxfile>
